<svg width="25" height="25" viewBox="0 0 25 25" fill="none" xmlns="http://www.w3.org/2000/svg">
<path d="M13.5959 0.554161C13.3053 0.263581 12.9111 0.100342 12.5001 0.100342C12.0891 0.100342 11.6949 0.263581 11.4042 0.554161L0.554244 11.4042C0.271899 11.6965 0.115668 12.088 0.119199 12.4944C0.122731 12.9008 0.285743 13.2896 0.573125 13.577C0.860508 13.8644 1.24927 14.0274 1.65567 14.0309C2.06208 14.0344 2.45361 13.8782 2.74594 13.5959L3.20009 13.1417V23.35C3.20009 23.7611 3.3634 24.1553 3.65408 24.446C3.94476 24.7367 4.33901 24.9 4.75009 24.9H7.85009C8.26118 24.9 8.65543 24.7367 8.94611 24.446C9.23679 24.1553 9.40009 23.7611 9.40009 23.35V20.25C9.40009 19.8389 9.5634 19.4447 9.85408 19.154C10.1448 18.8633 10.539 18.7 10.9501 18.7H14.0501C14.4612 18.7 14.8554 18.8633 15.1461 19.154C15.4368 19.4447 15.6001 19.8389 15.6001 20.25V23.35C15.6001 23.7611 15.7634 24.1553 16.0541 24.446C16.3448 24.7367 16.739 24.9 17.1501 24.9H20.2501C20.6612 24.9 21.0554 24.7367 21.3461 24.446C21.6368 24.1553 21.8001 23.7611 21.8001 23.35V13.1417L22.2542 13.5959C22.5466 13.8782 22.9381 14.0344 23.3445 14.0309C23.7509 14.0274 24.1397 13.8644 24.4271 13.577C24.7144 13.2896 24.8775 12.9008 24.881 12.4944C24.8845 12.088 24.7283 11.6965 24.4459 11.4042L13.5959 0.554161Z" fill="#6A4029"/>
</svg>
